<?xml version="1.0" encoding="utf-8"?>
<!-- Generator: Adobe Illustrator 23.0.0, SVG Export Plug-In . SVG Version: 6.00 Build 0)  -->
<svg version="1.1" id="Capa_1" xmlns="http://www.w3.org/2000/svg" xmlns:xlink="http://www.w3.org/1999/xlink" x="0px" y="0px"
	 viewBox="0 0 100 100" style="enable-background:new 0 0 100 100;" xml:space="preserve">
<style type="text/css">
	.st0{fill:url(#SVGID_1_);}
	.st1{fill:url(#SVGID_2_);}
	.st2{fill:url(#SVGID_3_);}
</style>
<g>
	<path d="M0,17.45v65.1C0,92.19,7.81,100,17.45,100h65.1c9.64,0,17.45-7.81,17.45-17.45v-65.1C100,7.81,92.19,0,82.55,0h-65.1
		C7.81,0,0,7.81,0,17.45z"/>
	<linearGradient id="SVGID_1_" gradientUnits="userSpaceOnUse" x1="11.1111" y1="47.222" x2="83.3765" y2="47.222">
		<stop  offset="0" style="stop-color:#42A4C5"/>
		<stop  offset="0.4457" style="stop-color:#3D9D84"/>
		<stop  offset="0.8161" style="stop-color:#399854"/>
		<stop  offset="1" style="stop-color:#389642"/>
	</linearGradient>
	<polygon class="st0" points="83.38,38.89 83.33,55.56 11.11,55.56 11.11,38.89 	"/>
	<linearGradient id="SVGID_2_" gradientUnits="userSpaceOnUse" x1="16.7099" y1="49.9999" x2="83.3765" y2="49.9999">
		<stop  offset="0" style="stop-color:#FDEF50"/>
		<stop  offset="0.0981" style="stop-color:#F1CE4B"/>
		<stop  offset="0.2403" style="stop-color:#E3A444"/>
		<stop  offset="0.3858" style="stop-color:#D7823F"/>
		<stop  offset="0.5331" style="stop-color:#CE673A"/>
		<stop  offset="0.6828" style="stop-color:#C75437"/>
		<stop  offset="0.8364" style="stop-color:#C34936"/>
		<stop  offset="1" style="stop-color:#C24535"/>
	</linearGradient>
	<polygon class="st1" points="33.38,16.67 16.71,16.67 16.71,83.33 33.33,83.33 66.71,83.33 83.38,83.33 	"/>
	<linearGradient id="SVGID_3_" gradientUnits="userSpaceOnUse" x1="33.3333" y1="66.6663" x2="66.6667" y2="66.6663">
		<stop  offset="0" style="stop-color:#513D8B"/>
		<stop  offset="0.3027" style="stop-color:#6F3C8A"/>
		<stop  offset="0.9583" style="stop-color:#BA3988"/>
		<stop  offset="1" style="stop-color:#BF3988"/>
	</linearGradient>
	<polygon class="st2" points="33.33,88.89 33.33,44.44 66.67,88.89 	"/>
</g>
</svg>
